<svg xmlns="http://www.w3.org/2000/svg" width="1600" height="1000" viewBox="0 0 1600 1000">
  <defs>
    <radialGradient id="bgGlow" cx="50%" cy="18%" r="70%">
      <stop offset="0%" stop-color="#2b241b"/>
      <stop offset="42%" stop-color="#080706"/>
      <stop offset="100%" stop-color="#020202"/>
    </radialGradient>
    <linearGradient id="gold" x1="0" y1="0" x2="1" y2="1">
      <stop offset="0%" stop-color="#f0dcad"/>
      <stop offset="42%" stop-color="#b89452"/>
      <stop offset="100%" stop-color="#7c5a2d"/>
    </linearGradient>
    <linearGradient id="panel" x1="0" y1="0" x2="0" y2="1">
      <stop offset="0%" stop-color="#15120e"/>
      <stop offset="100%" stop-color="#070605"/>
    </linearGradient>
    <filter id="shadow" x="-30%" y="-30%" width="160%" height="160%">
      <feDropShadow dx="0" dy="24" stdDeviation="28" flood-color="#000000" flood-opacity="0.62"/>
    </filter>
    <filter id="soft" x="-20%" y="-20%" width="140%" height="140%">
      <feGaussianBlur stdDeviation="24"/>
    </filter>
    <pattern id="noise" width="120" height="120" patternUnits="userSpaceOnUse">
      <rect width="120" height="120" fill="#000"/>
      <circle cx="12" cy="18" r="1" fill="#f2deb0" opacity="0.08"/>
      <circle cx="78" cy="33" r="1.4" fill="#fff5d5" opacity="0.05"/>
      <circle cx="38" cy="91" r="1.1" fill="#c8a15d" opacity="0.07"/>
      <circle cx="101" cy="74" r="0.9" fill="#ffffff" opacity="0.04"/>
    </pattern>
    <clipPath id="phoneClip1"><rect x="118" y="120" width="360" height="760" rx="44"/></clipPath>
    <clipPath id="phoneClip2"><rect x="620" y="120" width="360" height="760" rx="44"/></clipPath>
    <clipPath id="phoneClip3"><rect x="1122" y="120" width="360" height="760" rx="44"/></clipPath>
    <style>
      .serif{font-family:"Noto Serif TC","PMingLiU","Times New Roman",serif}
      .sans{font-family:"Noto Sans TC","Microsoft JhengHei",Arial,sans-serif}
      .muted{fill:#b8a98f}
      .gold{fill:url(#gold)}
      .line{stroke:#9f7b42;stroke-width:1;opacity:.7}
      .thin{stroke:#e9d09a;stroke-width:1;opacity:.55}
      .body{fill:#eee4d2}
      .small{font-size:18px;letter-spacing:1px}
      .label{font-size:17px;letter-spacing:1px;fill:#b9ad99}
      .title{font-size:48px;letter-spacing:8px;fill:#efe2c3}
      .phoneTitle{font-size:31px;letter-spacing:4px;fill:#f0dfbc}
      .caption{font-size:15px;letter-spacing:1px;fill:#9f927d}
    </style>
  </defs>

  <rect width="1600" height="1000" fill="url(#bgGlow)"/>
  <rect width="1600" height="1000" fill="url(#noise)" opacity="0.45"/>
  <circle cx="1290" cy="160" r="230" fill="#8a6b3e" opacity="0.11" filter="url(#soft)"/>
  <circle cx="260" cy="820" r="260" fill="#b89452" opacity="0.07" filter="url(#soft)"/>

  <text x="800" y="70" text-anchor="middle" class="serif title">紳 士 按 摩 APP 視 覺 規 劃</text>
  <text x="800" y="102" text-anchor="middle" class="serif small" fill="#b99a61">Gentleman Recovery | VIP Booking Experience</text>

  <!-- phone 1 -->
  <rect x="100" y="100" width="396" height="800" rx="58" fill="#050504" stroke="#8f6c3b" stroke-width="2" filter="url(#shadow)"/>
  <rect x="118" y="120" width="360" height="760" rx="44" fill="url(#panel)" stroke="#30261a"/>
  <g clip-path="url(#phoneClip1)">
    <rect x="118" y="120" width="360" height="760" fill="#050504"/>
    <rect x="118" y="120" width="360" height="760" fill="url(#noise)" opacity=".3"/>
    <circle cx="288" cy="260" r="170" fill="#84643b" opacity=".15" filter="url(#soft)"/>
    <path d="M300 213c-62 16-92 70-81 134 9 53 51 92 103 101 44 7 89-10 118-44-34 9-65 2-88-21-33-33-42-91-26-170z" fill="#0c0a08" opacity=".96"/>
    <path d="M342 230c-16 18-20 47-10 71 13 32 45 45 82 35-11 24-36 44-68 44-52 0-86-43-81-92 4-36 30-59 77-58z" fill="#1b1711" opacity=".9"/>
    <path d="M263 407c38-10 86-4 125 18 29 17 50 40 62 68H184c13-43 42-72 79-86z" fill="#11100e"/>
    <path d="M239 432l34 36 30-54 33 55 38-38 12 107H225z" fill="#181510"/>
    <line x1="166" y1="196" x2="252" y2="196" class="thin"/>
    <line x1="344" y1="196" x2="430" y2="196" class="thin"/>
    <text x="298" y="189" text-anchor="middle" class="serif" font-size="22" letter-spacing="4" fill="#d6bd82">紳 士 按 摩</text>
    <text x="298" y="217" text-anchor="middle" class="serif" font-size="13" letter-spacing="2" fill="#a98b55">Gentleman Recovery</text>

    <text x="298" y="520" text-anchor="middle" class="serif" font-size="44" letter-spacing="10" fill="#f4ead8">今 晚</text>
    <text x="298" y="572" text-anchor="middle" class="serif" font-size="27" letter-spacing="5" fill="#eee2cd">讓紳士照顧你的疲憊</text>
    <line x1="162" y1="600" x2="435" y2="600" class="line"/>
    <text x="298" y="635" text-anchor="middle" class="serif" font-size="17" letter-spacing="3" fill="#cfc2ad">不必出門，不必等待</text>
    <text x="298" y="664" text-anchor="middle" class="serif" font-size="17" letter-spacing="3" fill="#cfc2ad">在熟悉的空間享受專屬服務</text>

    <g transform="translate(145 707)">
      <rect width="306" height="54" rx="6" fill="url(#gold)"/>
      <text x="153" y="35" text-anchor="middle" class="serif" font-size="20" letter-spacing="5" fill="#070605">立即預約</text>
    </g>
    <g transform="translate(151 790)">
      <text x="0" y="0" class="sans caption">身份驗證</text>
      <line x1="92" y1="-14" x2="92" y2="10" class="line"/>
      <text x="121" y="0" class="sans caption">專業技師</text>
      <line x1="213" y1="-14" x2="213" y2="10" class="line"/>
      <text x="241" y="0" class="sans caption">到府服務</text>
    </g>
  </g>

  <!-- phone 2 -->
  <rect x="602" y="100" width="396" height="800" rx="58" fill="#050504" stroke="#8f6c3b" stroke-width="2" filter="url(#shadow)"/>
  <rect x="620" y="120" width="360" height="760" rx="44" fill="url(#panel)" stroke="#30261a"/>
  <g clip-path="url(#phoneClip2)">
    <rect x="620" y="120" width="360" height="760" fill="#070605"/>
    <rect x="620" y="120" width="360" height="760" fill="url(#noise)" opacity=".28"/>
    <text x="666" y="179" class="sans label">Step 1 / 5</text>
    <text x="666" y="225" class="serif phoneTitle">選擇今晚的修復</text>
    <text x="666" y="259" class="sans caption">預約制 VIP 到府服務</text>
    <line x1="666" y1="286" x2="934" y2="286" class="line"/>

    <g transform="translate(652 320)">
      <rect width="296" height="116" rx="10" fill="#15110d" stroke="#b89452" stroke-width="1.3"/>
      <text x="24" y="34" class="serif" font-size="24" fill="#efe2c3">紳士舒壓</text>
      <text x="24" y="66" class="sans caption">60 分鐘 | 肩頸與背部放鬆</text>
      <text x="24" y="96" class="sans" font-size="17" fill="#d7c293">適合下班後快速恢復狀態</text>
      <text x="236" y="43" class="serif" font-size="23" fill="#d4ad64">$2,800</text>
    </g>
    <g transform="translate(652 456)">
      <rect width="296" height="116" rx="10" fill="#0f0d0a" stroke="#4b3822" stroke-width="1.2"/>
      <text x="24" y="34" class="serif" font-size="24" fill="#efe2c3">深層修復</text>
      <text x="24" y="66" class="sans caption">90 分鐘 | 全身壓力釋放</text>
      <text x="24" y="96" class="sans" font-size="17" fill="#d7c293">長時間工作與睡眠壓力首選</text>
      <text x="236" y="43" class="serif" font-size="23" fill="#d4ad64">$3,800</text>
    </g>
    <g transform="translate(652 592)">
      <rect width="296" height="116" rx="10" fill="#0f0d0a" stroke="#4b3822" stroke-width="1.2"/>
      <text x="24" y="34" class="serif" font-size="24" fill="#efe2c3">尊榮全身</text>
      <text x="24" y="66" class="sans caption">120 分鐘 | 完整到府療程</text>
      <text x="24" y="96" class="sans" font-size="17" fill="#d7c293">為專屬會員安排深度休息</text>
      <text x="236" y="43" class="serif" font-size="23" fill="#d4ad64">$4,800</text>
    </g>

    <g transform="translate(652 738)">
      <rect width="136" height="46" rx="6" fill="#15110d" stroke="#7f623a"/>
      <text x="68" y="30" text-anchor="middle" class="sans" font-size="16" fill="#c9b897">今晚</text>
      <rect x="160" width="136" height="46" rx="6" fill="#15110d" stroke="#7f623a"/>
      <text x="228" y="30" text-anchor="middle" class="sans" font-size="16" fill="#c9b897">自選時段</text>
    </g>
    <rect x="652" y="810" width="296" height="48" rx="6" fill="url(#gold)"/>
    <text x="800" y="841" text-anchor="middle" class="serif" font-size="18" letter-spacing="4" fill="#070605">下一步</text>
  </g>

  <!-- phone 3 -->
  <rect x="1104" y="100" width="396" height="800" rx="58" fill="#050504" stroke="#8f6c3b" stroke-width="2" filter="url(#shadow)"/>
  <rect x="1122" y="120" width="360" height="760" rx="44" fill="url(#panel)" stroke="#30261a"/>
  <g clip-path="url(#phoneClip3)">
    <rect x="1122" y="120" width="360" height="760" fill="#070605"/>
    <rect x="1122" y="120" width="360" height="760" fill="url(#noise)" opacity=".28"/>
    <text x="1168" y="179" class="sans label">Step 5 / 5</text>
    <text x="1168" y="225" class="serif phoneTitle">確認專屬預約</text>
    <text x="1168" y="259" class="sans caption">送出後由專人為您確認安排</text>
    <line x1="1168" y1="286" x2="1436" y2="286" class="line"/>

    <g transform="translate(1154 318)">
      <rect width="296" height="82" rx="8" fill="#12100c" stroke="#40311f"/>
      <text x="22" y="32" class="sans caption">服務方案</text>
      <text x="22" y="62" class="serif" font-size="23" fill="#efe2c3">深層修復 90 分鐘</text>
    </g>
    <g transform="translate(1154 418)">
      <rect width="296" height="82" rx="8" fill="#12100c" stroke="#40311f"/>
      <text x="22" y="32" class="sans caption">預約時間</text>
      <text x="22" y="62" class="serif" font-size="23" fill="#efe2c3">今晚 21:30</text>
    </g>
    <g transform="translate(1154 518)">
      <rect width="296" height="82" rx="8" fill="#12100c" stroke="#40311f"/>
      <text x="22" y="32" class="sans caption">到府地區</text>
      <text x="22" y="62" class="serif" font-size="23" fill="#efe2c3">台北市信義區</text>
    </g>
    <g transform="translate(1154 618)">
      <rect width="296" height="82" rx="8" fill="#12100c" stroke="#40311f"/>
      <text x="22" y="32" class="sans caption">需求備註</text>
      <text x="22" y="62" class="serif" font-size="23" fill="#efe2c3">肩頸、腰背放鬆</text>
    </g>

    <line x1="1154" y1="730" x2="1450" y2="730" class="line"/>
    <text x="1154" y="764" class="sans caption">預估金額</text>
    <text x="1450" y="766" text-anchor="end" class="serif" font-size="31" fill="#d8b56f">$3,800</text>
    <rect x="1154" y="810" width="296" height="48" rx="6" fill="url(#gold)"/>
    <text x="1302" y="841" text-anchor="middle" class="serif" font-size="18" letter-spacing="4" fill="#070605">送出預約</text>
  </g>

  <g transform="translate(100 938)">
    <line x1="0" y1="0" x2="1400" y2="0" class="line"/>
    <text x="700" y="35" text-anchor="middle" class="serif" font-size="20" letter-spacing="4" fill="#b99a61">高端會員制預約 App | 黑金質感 | 私密到府 | 專人確認</text>
  </g>
</svg>
